<svg xmlns="http://www.w3.org/2000/svg" viewBox="0 0 800 600">
  <defs>
    <linearGradient id="space" x1="0" y1="0" x2="0" y2="1">
      <stop offset="0%" stop-color="#0b1026"/>
      <stop offset="55%" stop-color="#1b2350"/>
      <stop offset="100%" stop-color="#2c2a55"/>
    </linearGradient>
  </defs>
  <rect width="800" height="600" fill="url(#space)"/>
  <ellipse cx="400" cy="300" rx="380" ry="150" fill="#ffffff" opacity="0.05" transform="rotate(-18 400 300)"/>
  <g fill="#f4f1e8">
    <circle cx="90" cy="80" r="1.6"/><circle cx="200" cy="150" r="1.2"/>
    <circle cx="330" cy="60" r="1.8"/><circle cx="470" cy="120" r="1.2"/>
    <circle cx="580" cy="70" r="1.5"/><circle cx="700" cy="180" r="1.3"/>
    <circle cx="150" cy="260" r="1.1"/><circle cx="260" cy="330" r="1.5"/>
    <circle cx="620" cy="300" r="1.2"/><circle cx="740" cy="380" r="1.6"/>
    <circle cx="400" cy="220" r="1.4"/><circle cx="520" cy="420" r="1.1"/>
    <circle cx="80" cy="420" r="1.3"/><circle cx="300" cy="470" r="1.2"/>
  </g>
  <path d="M0 470 Q 180 430 360 470 T 800 465 L 800 600 L 0 600 Z" fill="#0d1424"/>
</svg>
